<?xml version="1.0" encoding="UTF-8"?> <svg xmlns="http://www.w3.org/2000/svg" width="18" height="18" viewBox="0 0 18 18" fill="none"> <path d="M8.62874 3.02366C8.73706 2.56461 8.79122 2.33508 8.87832 2.28339C8.95333 2.23887 9.04667 2.23887 9.12168 2.28339C9.20878 2.33508 9.26294 2.56461 9.37126 3.02366L9.89983 5.26363C10.0964 6.09671 10.1947 6.51325 10.4083 6.85105C10.5973 7.14977 10.8502 7.40274 11.149 7.59166C11.4868 7.8053 11.9033 7.90359 12.7364 8.10017L14.9763 8.62874C15.4354 8.73706 15.6649 8.79122 15.7166 8.87832C15.7611 8.95333 15.7611 9.04667 15.7166 9.12168C15.6649 9.20878 15.4354 9.26294 14.9763 9.37126L12.7364 9.89983C11.9033 10.0964 11.4868 10.1947 11.149 10.4083C10.8502 10.5973 10.5973 10.8502 10.4083 11.149C10.1947 11.4868 10.0964 11.9033 9.89983 12.7364L9.37126 14.9763C9.26294 15.4354 9.20878 15.6649 9.12168 15.7166C9.04667 15.7611 8.95333 15.7611 8.87832 15.7166C8.79122 15.6649 8.73706 15.4354 8.62874 14.9763L8.10017 12.7364C7.90359 11.9033 7.8053 11.4868 7.59166 11.149C7.40274 10.8502 7.14977 10.5973 6.85105 10.4083C6.51325 10.1947 6.09671 10.0964 5.26363 9.89983L3.02366 9.37126C2.56461 9.26294 2.33508 9.20878 2.28339 9.12168C2.23887 9.04667 2.23887 8.95333 2.28339 8.87832C2.33508 8.79122 2.56461 8.73706 3.02366 8.62874L5.26363 8.10017C6.09671 7.90359 6.51325 7.8053 6.85105 7.59166C7.14977 7.40274 7.40274 7.14977 7.59166 6.85105C7.8053 6.51325 7.90359 6.09671 8.10017 5.26363L8.62874 3.02366Z" fill="#00C1FF"></path> </svg> 